/* XPM */
static char *_1a84f9ea9bc495f9ddb1ce09efb55c51d4to35GIRAELcLL[] = {
/* columns rows colors chars-per-pixel */
"64 64 141 2 ",
"   c #363636",
".  c #3C3C3C",
"X  c #434343",
"o  c #4B4B4B",
"O  c #535353",
"+  c #5B5B5B",
"@  c #646464",
"#  c #6C6C6C",
"$  c #747474",
"%  c #7C7C7C",
"&  c #807F7F",
"*  c #838383",
"=  c #888787",
"-  c #8B8B8B",
";  c #90908F",
":  c #949393",
">  c #989797",
",  c #9B9B9B",
"<  c #A4A4A3",
"1  c #ACACAC",
"2  c #B0AFAF",
"3  c #B3B3B3",
"4  c #B8B8B7",
"5  c #BBBBBB",
"6  c #C0BFBF",
"7  c #C0C0BF",
"8  c #C4C4C4",
"9  c #CFCECE",
"0  c #CBCBCB",
"q  c #D0CFCF",
"w  c #D0CFCF",
"e  c #D0D0CF",
"r  c #D0D0CF",
"t  c #D0D0D0",
"y  c gray82",
"u  c #D2D2D1",
"i  c #D2D2D2",
"p  c #D3D2D2",
"a  c #D4D4D3",
"s  c gray83",
"d  c gray84",
"f  c #D7D6D6",
"g  c #D7D7D7",
"h  c #D4D4D3",
"j  c #D8D7D7",
"k  c #D8D8D7",
"l  c #D8D8D7",
"z  c #D8D8D8",
"x  c #D9D8D8",
"c  c #D9D9D8",
"v  c gray85",
"b  c #DAD9D9",
"n  c #DADAD9",
"m  c #DADADA",
"M  c #DBDADA",
"N  c #DBDBDA",
"B  c gray86",
"V  c #DCDBDB",
"C  c #DCDCDB",
"Z  c gainsboro",
"A  c #DDDDDC",
"S  c #DDDDDD",
"D  c #DEDEDD",
"F  c #DFDFDE",
"G  c #DDDCDC",
"H  c #E0DFDF",
"J  c #E0DFDF",
"K  c #E0E0DF",
"L  c #E0E0DF",
"P  c gray88",
"I  c #E1E1E0",
"U  c #E1E1E1",
"Y  c #E2E1E1",
"T  c #E2E2E1",
"R  c #E2E2E2",
"E  c gray89",
"W  c #E4E4E3",
"Q  c #E4E4E4",
"!  c #E5E4E4",
"~  c gray90",
"^  c #E6E5E5",
"/  c #E6E6E5",
"(  c #E6E6E6",
")  c #E7E6E6",
"_  c #E7E7E6",
"`  c #E3E3E2",
"'  c #E8E7E7",
"]  c #E8E7E7",
"[  c #E8E8E7",
"{  c gray91",
"}  c #E9E8E8",
"|  c #E9E9E9",
" . c #EAE9E9",
".. c #EAEAEA",
"X. c #EBEAEA",
"o. c #ECEBEB",
"O. c #ECECEC",
"+. c gray93",
"@. c #EEEDED",
"#. c #EFEDED",
"$. c #EEEEEE",
"%. c #EFEEEE",
"&. c #EFEFEF",
"*. c #EEEDED",
"=. c #F0EEEE",
"-. c #F0EFEF",
";. c #F0EFEF",
":. c gray94",
">. c #F1F0F0",
",. c #F1F1F1",
"<. c #F2F1F1",
"1. c gray95",
"2. c #F3F2F2",
"3. c #F3F3F3",
"4. c #F4F3F3",
"5. c #F4F4F4",
"6. c #F5F4F4",
"7. c gray96",
"8. c #F6F5F5",
"9. c #F6F5F6",
"0. c #F6F6F6",
"q. c #F7F6F6",
"w. c gray97",
"e. c #F5F4F4",
"r. c #F8F7F7",
"t. c #F8F7F7",
"y. c #F8F8F8",
"u. c #F9F8F8",
"i. c #F9F9F9",
"p. c #FAF9F9",
"a. c gray98",
"s. c #FBFAFA",
"d. c #FBFBFB",
"f. c #FCFBFB",
"g. c gray99",
"h. c #FDFCFC",
"j. c #FDFDFD",
"k. c #FEFDFD",
"l. c #FEFEFE",
"z. c white",
"x. c #FDFDFD",
/* pixels */
"z.z.s.%.%.8.z.z.4.%.:.z.z.s.%.%.8.z.z.5.%.2.8 1 R 2.%.8.z.z.5.%.%.g.z.d.:.%.8.z.z.5.%.:.g.z.g.:.%.8.z.z.8.%.%.s.z.g.%.%.5.z.z.8.",
"z.z.s.%.%.8.z.z.4.%.:.g.z.s.%.%.8.z.z.8.%.%.1 8 2 / %.8.z.z.8.%.2.g.z.s./ ..8.z.z.8.%.%.g.z.g.%.%.4.z.z.8.%.%.g.z.g.%.%.5.z.z.w.",
"s.s.s.2.2.8.s.s.8.2.5.s.s.w.2.2.8.s.s.8.2.2.: 0 8 1 %.8.s.s.w.Z d s.s.2.< 6 8.s.s.5.5.2.s.s.s.2.2.5.s.s.8.5.5.w.s.w.5.2.8.s.s.w.",
"%.%.2.z.z.w.%.%.s.z.z.:.%.2.z.z.w.%.%.s.z.2.% 5 w., 5 w.%.:.8.< : ..-.4 , 1 8.:.%.s.z.z.:.%.:.z.z.s.%.%.w.z.z.2.%.2.z.z.s.:.%.8.",
"%.%.8.z.z.8.%.%.s.z.z.2.%.2.z.z.w.%.%.s.z./ @ 1 z.v = 8 %.2.8 $ % 8 0 $ 8 > R %.%.s.z.z.2.%.:.z.z.s.%.%.s.z.z.2.%.2.z.z.s.%.%.8.",
"8.8.8.w.w.w.8.8.8.w.8.8.8.8.w.8.w.8.8.w.s.0 + < w.s.3 * u %.= $ * - $ - d - 8 s.8.8.8.w.8.w.8.w.w.8.w.w.w.2.8.8.8.8.8.8.8.8.8.w.",
"z.z.s.%.%.8.z.z.5.%.%.g.z.s.%.%.8.z.z.5.:.1 O > :.z./ > - 3 @ % * @ @ 3 S - < z.z.3.%.%.g.z.g.:.%.8.z.O.8 < R g.z.g.%.%.8.z.z.w.",
"z.z.s.%.%.8.z.s.R ..2.z.z.s.2.%.8.z.z.2.2., o - E z.z.0 = % , < * O * 8 R , % F z.w.%.:.s.z.g.3.%.v 4 , 4 < %.s.z.g.2.%.5.z.z.w.",
"2.2.8.s.s.8.8.E < 4 0 E 2.w.s.s.8.5.3.s.8.* O = d z.z.O.1 ; 8 1 + @ , v P < # - < 0 :.d.0.0.:.d < * < s 1 7 g.5.2.8.w.s.w.2.5.8.",
"%.%.5.z.z.8.%.%.1 4 0 , 1 0 8.z.s.%.%./ 8 @ O = 0 g.z.O.4 1 1 + O % 1 S P < # : < - : 0 E 8 ; $ - 4 v 0 = R z.2.%.:.z.z.s.%.%.8.",
":.:.5.g.z.8.:.2.9 % Z &.6 : : 4 v / 0 4 8 $ + % 2 0 3 < 1 3 > O @ : 8 l Z 1 $ & 1 1 , & % $ & < 8 Z Z , : w.g.5.%.2.s.z.w.2.2.8.",
"g.z.s.:.2.8.g.z.&.% * E z.{ 5 - * ; 4 N S 0 4 2 1 1 1 2 4 5 1 # % < 8 v v 2 & @ % > < < * * 2 9 S F 8 % 3 5.2.s.z.s.2.:.8.g.z.w.",
"z.z.s.%.%.8.z.z.w.1 O , { z.s.P 4 > 1 l R L L C i 9 0 0 8 8 5 1 = < 8 P v 2 * # $ * - ; > ; 1 v S v , $ d :.%.s.z.z.%.%.2.z.z.8.",
"s.g.w.2.5.8.s.g.8.P + @ 1 ( z.z.8.i 8 r R / ] / P d i 0 0 8 8 5 1 > - , > * $ # $ # # # # $ % , r 8 = - :.2.2.s.s.s.2.2.8.g.g.w.",
"%.%.5.z.z.8.%.:.g.z.: X $ 3 O.z.u.0 8 r C ] ....} R v d 0 0 8 5 5 4 1 > & $ # # # # $ - @ + @ @ = 1 $ 3 s.z.g.2.%.2.g.z.s.:.%.8.",
"%.%.2.z.z.8.%.%.%.3 * X + * 5 { i 8 4 < i 0 0 v W _ F v d r 0 8 4 1 < , > - & $ % : 5 , @ + O O + @ # l s.z.z.2.%.%.g.z.s.%.:.8.",
"8.8.8.w.w.w.8.w.4.: O X X @ : 3 5 i 3 $ 5 v 0 4 4 8 d S l r 8 5 3 2 < < : % $ - < 5 4 * + O O o O O + 8 s.8.w.8.8.8.w.w.w.8.8.8.",
"z.z.s.%.%.8.z.z.4.r O o X @ > 4 0 S 1 @ , a W l 8 4 1 8 a i 0 8 5 3 1 < - % ; , 3 4 , $ + + O o X + @ $ v :.2.s.z.z.&.O.8.z.z.w.",
"z.z.s.%.:.8.z.z.4.o.> 1 1 4 0 l F W 1 + & 4 N W S r 5 3 5 0 r 8 5 3 1 < ; - , 2 4 2 ; # + + O o X o @ @ : ..&.g.z.g.:.%.5.z.z.8.",
"5.5.8.s.s.8.5.5.u.=.8 S L L S L R ` ; o $ , 8 F / S d 4 5 8 0 0 6 4 2 < : , 1 3 2 < = @ + + O o X X + $ $ 8 d.8.3.5.s.s.w.5.8.8.",
"%.%.2.z.z.w.%.%.f.a 8 ` / L L R R F & o @ - 1 r W / l 8 8 0 0 8 7 4 1 1 , < 2 3 1 : % @ + + O o o X O $ % : w.3.%.:.z.z.s.%.%.8.",
"%.-.2.z.z.8.2.2.4.5 u } } / L L F R : o @ % , 5 d C 0 8 0 r 0 0 7 4 2 < < , 2 2 < - % @ O + O o X . o @ = % 0 8.2.2.g.z.s.:.:.8.",
"z.z.s.5.2...S 8 , % * 0 } / W L F ` 0 @ + $ = < 8 8 8 9 i u i 0 7 4 2 1 < > : : ; * # @ + + O o X . o @ % $ & 2 0 / O.2.w.z.z.8.",
"s.%.v 4 , - % % = - : < j R R F F R F 8 > , < 4 8 r l v v v i 0 8 4 2 < , > ; $ + + + + @ + O o X X X # < < > - = = > 1 8 E 8.8.",
"1 2 3 4 5 8 r s v v C 4 8 L R R L L F L R L L L L ` L W R v r 8 6 3 2 1 , > ; - $ + + @ @ + O o X X X $ / ..../ P v t 0 6 4 1 7 ",
"4 > 1 d %.8.z.z.z.z.s.8 0 R W ` L F F F L L L ` L R L ` L l 0 0 5 3 1 < , > - = * $ @ @ @ + O o X . o % w.z.z.z.z.z.z.:.r < 1 Z ",
"&.9 * @ * < 8 d E 2.%.5 0 P E P F F F F L L L L W W L L N u 0 8 5 3 1 < , > ; = % $ # # + + O o X X o $ 2.z.z.5.E 0 1 % # 2 / w.",
"8.8.O.< O O # * , 3 4 4 0 S E P L ` L L L L L L L L L C v 0 8 8 4 2 1 < 3 5 3 < = $ # # @ O o o . X o # s S 8 2 ; $ O $ i w.w.w.",
"z.z.s.&.8 @ X O @ $ ; 4 0 d Z P ` ` L L ` ` ` ` W L L l i 9 8 4 3 1 < 1 5 8 8 5 < $ # @ @ O o o X X O + : , * # + o > R w.z.z.8.",
"z.z.s.%.2.S = X X O ; 5 8 0 s B R ` R L ` ` ` ` L C l r 9 8 5 3 3 < , < 2 7 0 7 1 % @ @ + O o X . X O @ # @ + X + 4 %.%.3.z.z.w.",
"8.4.8.s.w.s...- + @ < 5 8 8 9 i l N C F F F C C l a r 0 0 8 4 3 1 , * : , 3 8 t 3 % + + + O o X X o + @ # + X O 4 8.s.w.t.8.8.8.",
"%.%.2.z.z.8.o.1 3 3 2 3 5 2 3 8 9 r u l d d a u r 9 0 8 5 4 3 1 < * # $ $ % * , - # O O O o o . X o + # % $ # = 0 5.z.z.s.%.%.8.",
"&.:.5.g.g.$.2 % 3 7 2 2 - # = 1 4 0 0 0 0 0 0 0 0 0 7 5 3 3 2 < < * + + O o X . . O O o O o X X X O @ # % > , = ; g g.g.d.$.$.0.",
"g.z.w.5.P ; + @ 3 7 1 = # - 4 P 9 2 8 8 8 8 8 7 2 < 3 3 3 2 < < , - O X .         o o O o o X . o + @ $ & < 4 : % & 8 ,.0.g.g.0.",
"z.z.w.8 $ O + @ 1 5 - # , s 5.z.y.2 3 5 4 5 2 * % - < 5 3 < , , , : @ .         . o o O o X X X O + # $ - 1 7 , ; * % < O.z.g.w.",
"z.:.1 @ + + + + , , $ 3 { g.z.g.g.0 , 3 3 1 $ + % > 3 5 5 < > > : - * # o X . . o o O o o X X o O @ $ % ; 3 7 > : : ; * : P g.w.",
"0 = + O + O O O $ ; 9 i.g.g.0.O.U 7 , 1 2 = o + % < 5 5 2 > * ; - * * % $ # @ + O O o o X . X O @ # $ * , 5 3 * * - - ; - - 5 2.",
"$ + o X X X X O , ~ $.P 9 5 1 < , ; , , < @ . @ - 3 5 2 > = $ * * * % % # # @ @ + O O o X X o @ # # % - < 8 , @ @ @ @ # # $ $ 4 ",
"P 0 1 * @ X . @ = % $ # # # @ @ @ $ > , , @ . @ , 5 1 - % # # $ * % % # # @ @ + O O o X X o , 8 , % % : 3 0 $ o X o O # = 2 0 { ",
"z.z.g.%.U t 3 ; @ @ # O X . . X o % : > : $ . @ 2 < * # @ + # % % $ $ # @ + + + O o X . o < g.0.8 - % , 7 5 @ @ - 3 t E 3.z.z.w.",
"z.z.g.%.%.s.z.z.R - < > $ @ O o @ = - - - = o # ; @ + o X + $ $ $ # # @ + + + O o X X . * 1.d.g.:.3 & < 0 4 5 2.z.z.2.%.5.z.z.8.",
"5.8.8.8.s.8.5.5.w.3 * < - * & & & * * * = = % + .       . @ # $ $ # @ + + O O o X X X O , 0 ..d.z.E , , 0 3 { w.8.8.w.w.8.8.8.8.",
"%.%.2.z.z.w.%.%.g.| * ; : % $ $ % % % % * - - * # + o X + @ # $ @ @ @ + O O o X X X X + % - 3 m w.z.s : 2 8 g.2.%.2.z.z.s.%.:.8.",
":.%.5.z.z.8.:.%.g.g.3 % : * $ $ $ $ % * * * = * * & % # @ # # @ @ + + O o o X X . o O O O @ # - 5 %.g.5 > %.z.2.%.2.s.z.s.%.2.8.",
"g.g.w.2.2.8.g.s.0.3.( > : : * $ % * * * * * % % % % $ $ # @ @ + + + O o X X . X o O + O X X o O # , s :.< d 5.s.g.s.2.2.5.s.g.w.",
"z.z.s.%.%.8.z.z.3.+.3.B % $ - - * * * % % % % % $ # # # @ @ @ + O O o X X X X o O + @ @ X   . . . X @ < 8 2 %.s.z.g.%.O.5.z.z.w.",
"g.g.w.2.2.8.g.g.3.,.,.0.% O $ - * % % % $ $ $ # $ # @ @ @ + + O o o X X . X O + + @ $ * @ X O # & $ + O % < P s.g.s.2.2.8.g.g.8.",
"2.%.2.z.z.8.2.%.d.g.d.m @ + * , : % $ $ $ $ # # @ @ @ + + + O o o X X X o o + + @ $ % * * + % 3 8 < & $ % P s.5.%.2.z.z.w.%.2.8.",
"%.%.2.z.z.8.%.%.s.z.z.4 O $ : 1 < - $ $ # # @ @ @ + + + + & 3 8 4 = O o O + @ # $ % = : < : , 4 > % & & # 0 z.3.%.2.z.z.s.%.%.8.",
"2.8.8.w.s.w.5.5.w.w.w.; + - < < > % # $ # @ @ + + O O o # < %.z.g.B = + @ # $ % & - > 1 8 6 , * + @ $ & $ , 8.8.3.8.8.s.8.8.8.8.",
"z.z.s.%.%.8.z.z.8.%.S # $ , < : $ @ O # # @ + + + O X X @ > / z.g.0 * O @ $ % * ; < 4 8 8 3 @ . X O @ $ % % v g.z.s.%.%.8.z.z.8.",
"z.z.s.%.%.8.z.z.2.2.5 @ > < : # + X O @ $ $ $ # @ + O X + - F z.0.2 $ O $ * : < 3 7 8 5 3 8 < @ X . o @ % $ 2 z.z.z.-.%.5.z.z.w.",
"8.8.8.w.w.w.8.8.w.w.< $ < - @ o @ , i 4 * $ % * * % % + o % v z.O.: @ # : 1 4 6 8 5 2 5 Z 5.w.%.t : @ X O $ ; O.8.8.w.w.8.8.8.8.",
"%.%.2.z.z.w.%.%.g.:.= > & + # 1 E &.2.s.%.5 - % = - > : O # 0 z.B % # < 5 6 5 3 , - s i.2.O.2.z.z.g.P 4 - @ # 0 :.:.z.z.s.%.%.8.",
"%.%.2.z.z.w.:.%.g.g = % * 4 5.z.w.2.2.w.z.z...4 + + $ = @ + 8 z.7 # - , , ; & # + $ 0.g.2.%.2.z.z.w.2.:.8.R 3 8 2.2.g.z.s.%.2.8.",
"s.g.s.2.2.8.s.g.w.4 > 0 8.d.5.2.8.d.d.5.2.2.s.2.@   . X X X 2 d., * @ o o O + @ + - :.3.s.s.s.3.:.8.g.g.8.5.8.w.g.w.2.2.8.g.g.8.",
"z.z.s.%.%.8.z.z.5.E ..z.z.s.%.%.8.z.z.5.%.%.g.z.,   . . X $ , E ; S 2 . . o + @ O < %.%.g.z.d.%.%.5.z.z.5.%.%.s.z.z.%.%.5.z.z.8.",
"d.z.w.2.2.8.g.s.8.2.2.d.g.s.2.&.8.z.g.8.:.2.s.z.8 .   . < d > 8 2 g.s.- . X + + + 4 2.:.s.z.s.2.%.8.s.z.8.:.2.s.g.s.2.%.5.g.z.w.",
"%.:.5.g.z.8.%.2.s.g.g.2.&.2.g.z.w.:.%.s.g.g.:.%.E +   & / %.2 1 { 5.:.E $ . O + @ t z.g.2.%.2.d.z.s.%.:.w.z.g.5.%.2.g.z.w.2.%.8.",
"%.%.2.z.z.w.%.%.s.z.z.&.%.2.z.z.8.%.%.s.z.z.2.%.2.= + Z 2.&.v d g.3.%.3.E @ X + # / z.z.:.%.2.z.z.w.%.%.w.z.z.2.%.:.z.z.s.%.%.8.",
"3.5.8.s.s.w.8.5.8.s.s.5.2.8.s.w.w.8.5.8.s.w.2.2.8.0 8 d.8.5.s.s.s.8.3.8.g.9 + O $ ..s.s.8.5.5.s.s.8.8.5.w.s.w.8.5.8.w.s.w.5.5.8.",
"z.z.s.%.%.t.z.z.3.%.%.s.z.s.&.%.8.z.z.2.%.&.s.z.g.:.:.8.z.z.2.%.%.g.z.s.:.2.3 O - 2.%.%.s.z.g.%.%.2.z.z.8.%.:.g.z.g.:.%.5.z.z.w.",
"z.z.s.%.&.8.z.z.5.%.:.z.z.g.%.%.w.z.z.8.%.&.z.z.s.2.&.8.z.z.8.&.%.g.z.z.:.%.:., , 8.%.2.g.z.g.:.%.8.z.z.8.%.%.g.z.g.2.%.5.z.z.8.",
"8.w.w.8.8.8.8.s.8.8.8.8.w.w.8.8.8.w.8.w.8.8.w.w.w.8.w.8.w.w.8.8.8.w.w.w.8.8.w.O.v 8.8.8.w.8.8.s.8.8.w.8.8.8.8.5.8.8.w.8.8.8.8.s."
};
